<svg id="Layer_1" data-name="Layer 1" xmlns="http://www.w3.org/2000/svg" xmlns:xlink="http://www.w3.org/1999/xlink" viewBox="0 0 1366 768"><defs><style>.cls-1{fill:url(#linear-gradient);}.cls-2{transform-origin: 50% 50%;fill:none;stroke:#78a9ff;stroke-miterlimit:10;stroke-width:11px;-webkit-animation: rotation 2s infinite linear;}@-webkit-keyframes rotation {from {-webkit-transform: rotate(0deg);}to {-webkit-transform: rotate(359deg);}}</style><linearGradient id="linear-gradient" x1="683" y1="768" x2="683" gradientUnits="userSpaceOnUse"><stop offset="0" stop-color="#ffeaaa"/><stop offset="1" stop-color="#ff7f83"/></linearGradient></defs><title>ss</title><rect class="cls-1" width="1366" height="768"/><path class="cls-2" d="M956,481c-88.92,133.65-269.35,169.92-403,81-106.92-71.13-135.93-215.48-64.8-322.4,56.91-85.54,172.38-108.75,257.92-51.84A148.82,148.82,0,0,1,787.59,394.1a119.06,119.06,0,0,1-165.07,33.18A95.24,95.24,0,0,1,596,295.22,76.2,76.2,0,0,1,701.63,274a61,61,0,0,1,17,84.52A48.77,48.77,0,0,1,651,372.09,39,39,0,0,1,640.13,318"/></svg>
